<?xml version="1.0" encoding="UTF-8"?>
<svg id="Layer_1" data-name="Layer 1" xmlns="http://www.w3.org/2000/svg" xmlns:xlink="http://www.w3.org/1999/xlink" viewBox="0 0 347.62 314">
  <defs>
    <style>
      .cls-1 {
        fill: url(#linear-gradient-2);
      }

      .cls-2 {
        fill: url(#radial-gradient);
      }

      .cls-3 {
        fill: url(#linear-gradient-3);
        opacity: .85;
      }

      .cls-4 {
        fill: url(#linear-gradient);
      }
    </style>
    <radialGradient id="radial-gradient" cx="222.33" cy="157" fx="222.33" fy="157" r="63.51" gradientTransform="translate(-101.26 -41.45) rotate(-22.63) scale(1 1.96)" gradientUnits="userSpaceOnUse">
      <stop offset="0" stop-color="#19c1f4"/>
      <stop offset=".26" stop-color="#18bef2"/>
      <stop offset=".42" stop-color="#17b6ed"/>
      <stop offset=".55" stop-color="#15a7e5"/>
      <stop offset=".67" stop-color="#1293da"/>
      <stop offset=".77" stop-color="#0f78cb"/>
      <stop offset=".87" stop-color="#0a58b9"/>
      <stop offset=".96" stop-color="#0532a4"/>
      <stop offset="1" stop-color="#03219b"/>
    </radialGradient>
    <linearGradient id="linear-gradient" x1="232.12" y1="186.69" x2="183.14" y2="237.28" gradientUnits="userSpaceOnUse">
      <stop offset="0" stop-color="#19c1f4"/>
      <stop offset=".09" stop-color="#16abe8"/>
      <stop offset=".31" stop-color="#0f7acc"/>
      <stop offset=".52" stop-color="#0953b7"/>
      <stop offset=".71" stop-color="#0637a7"/>
      <stop offset=".87" stop-color="#03269e"/>
      <stop offset="1" stop-color="#03219b"/>
    </linearGradient>
    <linearGradient id="linear-gradient-2" x1="122.51" y1="135.74" x2="105.85" y2="246.75" gradientUnits="userSpaceOnUse">
      <stop offset="0" stop-color="#19c1f4"/>
      <stop offset="1" stop-color="#03219b"/>
    </linearGradient>
    <linearGradient id="linear-gradient-3" x1="185.9" y1="185.08" x2="153.44" y2="247.56" gradientUnits="userSpaceOnUse">
      <stop offset="0" stop-color="#19c1f4"/>
      <stop offset=".13" stop-color="#18bbf1"/>
      <stop offset=".29" stop-color="#16ace8"/>
      <stop offset=".48" stop-color="#1292da"/>
      <stop offset=".67" stop-color="#0d6fc6"/>
      <stop offset=".87" stop-color="#0742ad"/>
      <stop offset="1" stop-color="#03219b"/>
    </linearGradient>
  </defs>
  <polygon class="cls-2" points="291.41 261.98 260.98 261.98 185.14 112.15 168.46 145.1 153.24 115.04 185.14 52.03 291.41 261.98"/>
  <polygon class="cls-4" points="167.16 188.53 186.96 227.65 204.34 261.98 237.57 261.98 183.78 155.7 167.16 188.53"/>
  <polygon class="cls-1" points="168.46 145.1 154.32 173.05 141.91 148.55 93.93 243.35 127.63 243.35 117.46 261.98 56.21 261.98 141.91 92.65 153.24 115.04 168.46 145.1"/>
  <polygon class="cls-3" points="200.46 188.53 180.65 227.65 163.27 261.98 130.05 261.98 183.84 155.7 200.46 188.53"/>
</svg>