<?xml version="1.0" encoding="UTF-8"?>
<svg id="Layer_1" data-name="Layer 1" xmlns="http://www.w3.org/2000/svg" xmlns:xlink="http://www.w3.org/1999/xlink" viewBox="0 0 1146.63 317.1">
  <defs>
    <style>
      .cls-1 {
        fill: url(#linear-gradient-2);
      }

      .cls-2 {
        fill: #fff;
      }

      .cls-3 {
        fill: url(#radial-gradient);
      }

      .cls-4 {
        fill: url(#linear-gradient-3);
        opacity: .85;
      }

      .cls-5 {
        fill: url(#linear-gradient);
      }
    </style>
    <radialGradient id="radial-gradient" cx="223.14" cy="158.55" fx="223.14" fy="158.55" r="63.51" gradientTransform="translate(-102.36 -42.39) rotate(-22.63) scale(1 1.96)" gradientUnits="userSpaceOnUse">
      <stop offset="0" stop-color="#19c1f4"/>
      <stop offset=".26" stop-color="#18bef2"/>
      <stop offset=".42" stop-color="#17b6ed"/>
      <stop offset=".55" stop-color="#15a7e5"/>
      <stop offset=".67" stop-color="#1293da"/>
      <stop offset=".77" stop-color="#0f78cb"/>
      <stop offset=".87" stop-color="#0a58b9"/>
      <stop offset=".96" stop-color="#0532a4"/>
      <stop offset="1" stop-color="#03219b"/>
    </radialGradient>
    <linearGradient id="linear-gradient" x1="232.92" y1="188.24" x2="183.94" y2="238.83" gradientUnits="userSpaceOnUse">
      <stop offset="0" stop-color="#19c1f4"/>
      <stop offset=".09" stop-color="#16abe8"/>
      <stop offset=".31" stop-color="#0f7acc"/>
      <stop offset=".52" stop-color="#0953b7"/>
      <stop offset=".71" stop-color="#0637a7"/>
      <stop offset=".87" stop-color="#03269e"/>
      <stop offset="1" stop-color="#03219b"/>
    </linearGradient>
    <linearGradient id="linear-gradient-2" x1="123.31" y1="137.29" x2="106.66" y2="248.3" gradientUnits="userSpaceOnUse">
      <stop offset="0" stop-color="#19c1f4"/>
      <stop offset="1" stop-color="#03219b"/>
    </linearGradient>
    <linearGradient id="linear-gradient-3" x1="186.71" y1="186.63" x2="154.24" y2="249.11" gradientUnits="userSpaceOnUse">
      <stop offset="0" stop-color="#19c1f4"/>
      <stop offset=".13" stop-color="#18bbf1"/>
      <stop offset=".29" stop-color="#16ace8"/>
      <stop offset=".48" stop-color="#1292da"/>
      <stop offset=".67" stop-color="#0d6fc6"/>
      <stop offset=".87" stop-color="#0742ad"/>
      <stop offset="1" stop-color="#03219b"/>
    </linearGradient>
  </defs>
  <g>
    <polygon class="cls-3" points="292.22 263.52 261.79 263.52 185.95 113.7 169.27 146.65 154.05 116.59 185.95 53.57 292.22 263.52"/>
    <polygon class="cls-5" points="167.97 190.08 187.77 229.2 205.15 263.52 238.38 263.52 184.58 157.25 167.97 190.08"/>
    <polygon class="cls-1" points="169.27 146.65 155.12 174.6 142.72 150.1 94.74 244.9 128.43 244.9 118.27 263.52 57.01 263.52 142.72 94.2 154.05 116.59 169.27 146.65"/>
    <polygon class="cls-4" points="201.26 190.08 181.46 229.2 164.08 263.52 130.85 263.52 184.65 157.25 201.26 190.08"/>
  </g>
  <g>
    <path class="cls-2" d="M472.4,214.06v-27.1c0-16.42,11.36-24.36,32.16-24.36h39.96c14.64,0,21.08-4.79,21.08-13.55,0-10.67-9.72-13.96-28.6-13.96h-59.26l9.58-12.59h55.84c26.42,0,36.68,10.54,36.68,25.73s-9.85,25.32-33.94,25.32h-39.96c-12.59,0-19.16,3.97-19.16,13.28v14.78h94.44l-9.58,12.45h-99.23Z"/>
    <path class="cls-2" d="M749.53,184.22v29.84h-14.78v-42.15h65.42c17.38,0,31.48-4.93,31.48-18.2,0-14.23-12.87-18.61-31.61-18.61h-65.56l9.85-12.59h60.9c25.18,0,41.2,11.77,41.2,31.34s-15.88,30.38-41.2,30.38h-55.7Z"/>
    <path class="cls-2" d="M860.1,214.06v-91.56h97.17l-9.72,12.59h-72.67v27.51h78.15l-8.49,10.95h-69.66v28.06h83.08l-9.72,12.45h-88.14Z"/>
    <path class="cls-2" d="M1068.68,214.06l-44.34-38.6-44.62,38.6h-18.61l54.61-47.08-51.05-44.48h20.53l40.51,35.72,40.79-35.72h19.3l-51.05,43.93,54.88,47.63h-20.94Z"/>
    <path class="cls-2" d="M446.88,214.06h18.15l-58.58-105.4c-2.05-3.15-5.34-5.61-9.72-5.61s-7.8,2.74-9.72,5.61l-59.4,105.4h17.52l16.18-29.7h69.66l15.9,29.7ZM368.11,171.9l28.35-52.03,27.85,52.03h-56.21Z"/>
    <path class="cls-2" d="M707.17,214.06h18.15l-58.58-105.4c-2.05-3.15-5.34-5.61-9.72-5.61s-7.8,2.74-9.72,5.61l-59.4,105.4h17.52l16.18-29.7h69.66l15.9,29.7ZM628.4,171.9l28.35-52.03,27.85,52.03h-56.21Z"/>
  </g>
</svg>